<?xml version="1.0" encoding="utf-8"?>
<!-- Generator: Adobe Illustrator 17.1.0, SVG Export Plug-In . SVG Version: 6.00 Build 0)  -->
<!DOCTYPE svg PUBLIC "-//W3C//DTD SVG 1.1//EN" "http://www.w3.org/Graphics/SVG/1.1/DTD/svg11.dtd">
<svg version="1.1" id="Layer_1" xmlns="http://www.w3.org/2000/svg" xmlns:xlink="http://www.w3.org/1999/xlink" x="0px" y="0px"
	 viewBox="0 0 64 64" enable-background="new 0 0 64 64" xml:space="preserve">
<radialGradient id="SVGID_1_" cx="153.2968" cy="132.3185" r="102.4704" gradientTransform="matrix(0.2358 0 0 0.2358 0 0)" gradientUnits="userSpaceOnUse">
	<stop  offset="0" style="stop-color:#BA2427"/>
	<stop  offset="0.6058" style="stop-color:#F15D25"/>
	<stop  offset="1" style="stop-color:#BA2427"/>
</radialGradient>
<path fill-rule="evenodd" clip-rule="evenodd" fill="url(#SVGID_1_)" d="M20.9,8.1c0.4-0.1,1.2-0.1,1.6-0.4c0.3-0.2,1-0.2,1.4-0.2
	c0.4,0,0.9-0.1,1.3-0.2c0.5-0.1,1-0.1,1.5-0.2C26.9,7,27.2,7,27.4,6.9c0.3-0.1,0.2-0.5,0.5-0.7c0.9-0.6,2.5,0.1,3.4-0.5
	c-0.4-0.4-1.5-0.2-2-0.2c-0.7-0.1-1.5-0.1-2.2,0c-0.8,0.1-1.7,0.1-2.4,0c-0.9-0.2,0.8-0.5,1.1-0.5C27.3,4.8,29,5,30.6,5
	c1.2,0,2.3,0.3,3.5,0.4c0.5,0,1.2,0.4,1.7,0.2c0.3-0.4,0.3-0.4,0.8-0.4c0.3,0.1,0.3,0.4,0.5,0.6c0.5,0.4,1.3,0.5,1.9,0.7
	c0.7,0.3,1.4,0.5,2.1,0.8c0.3,0.1,1.7,0.6,1.8,0.2c-0.4-0.6-1.2-0.8-1.8-1.1c-0.7-0.3-1.4-0.6-2.2-0.8c-0.3-0.1-0.7-0.2-1-0.4
	c-0.5-0.3,0.3-0.2,0.5-0.2c0,0-0.3,0,0,0c0.4,0.1,1.9,0.5,2.2,0.7c1,0.4,2,0.9,3,1.4c1.5,0.8,3,1.8,4.2,3c0.6,0.6,1.3,1.1,1.9,1.7
	c0.6,0.6,1.2,1.2,2,1.7c0.3,0.2,0.9,0.5,0.9-0.1c0-0.5,0.1-0.7-0.4-1.5c-0.2-0.3-0.4-0.7-0.6-0.9c-0.3-0.4-1.2-0.9-1.1-1.1
	c0.2-0.5,2.1,1.2,2.6,1.7c0.8,0.8,1.5,1.7,2.2,2.6c1.4,1.9,2.9,4,3.6,6.3c0.6,0.9,0.8,2.3,1.1,3.4c0.3,0.9,0.3,1.9,0.6,2.8
	c0.2,0.7,0.3,1.6,0.3,2.3c0.1,1.2,0.3,2.5,0.2,3.7c0,2-0.1,3.9-0.6,5.8c-0.6,2.2-1.6,4.3-2.7,6.3c-2.4,4.1-6.2,7.9-10.5,10.1
	c-2,1-4.2,1.6-6.5,1.7c-1.2,0-2.1-0.4-3.2-0.9c-0.4-0.2-1.2-0.5-1.3-1c-0.2-0.6,0.9-0.7,1.3-0.7c0.5,0,0.9-0.1,1.4,0
	c0.2,0,0.8,0.2,1,0.1c0.9-0.3-0.3-2.5-0.5-3c-0.3-0.7-1.8-5.1,0.1-4.9c1.1,0.1,2.1,1.3,3,1.9c1.1,0.7,2.3,1.4,3.6,1.6
	c0.4,0.1,0.8,0.2,1.2,0.2c0.4,0,0.9-0.1,1.4-0.1c0.6,0.1,2.7-0.8,1.7-1.6c-0.8-0.7-1.3-1.7-2-2.4c-0.7-0.8-1.9-1.7-2-2.8
	c-0.1-1,2.2-0.9,2.7-0.9c1.2,0,2.4,0.1,3.6-0.2c0.9-0.2,1.8-0.5,2.6-1c0.7-0.4,2.1-1.5,1.5-2.5c-0.5-1-2-1.4-3-1.7
	c-0.9-0.3-2-0.1-2.9-0.5c-1-0.5-0.6-1.5,0.1-2.1c1-0.8,2.2-1.2,3.1-2c0.8-0.8,1.5-1.7,2.1-2.7c0.5-0.9,1-2.4,0.2-3.2
	c-0.7-0.7-1.9-0.3-2.7-0.1c-1.2,0.3-2.1,1-3.2,1.4c-1.2,0.5-1.8-0.1-1.6-1.3c0.2-1.3,1.2-2.3,1.4-3.6c0.3-1.6,0.1-4-0.7-5.4
	c-1.6-2.5-4,1.2-4.7,2.6c-0.3,0.6-0.9,1.8-1.8,1.5c-0.9-0.3-0.9-1.6-1.1-2.4c-0.5-1.9-1.4-3.6-2.9-4.9c-0.6-0.6-1.4-1.3-2.3-1.3
	c-0.9,0-1.2,0.8-1.3,1.6c-0.1,0.9-0.2,1.8-0.3,2.7c0,0.9,0.4,2.4,0,3.2c-0.5,0.8-1.6-0.4-1.9-0.7c-0.6-0.6-1.3-1.2-2.1-1.7
	c-0.8-0.5-1.6-0.9-2.5-1.1c-0.9-0.2-2.1-0.6-3-0.3c-0.8,0.3-1.4,1.2-2.2,1.6c-0.9,0.4-1.7,1-2.6,1.4c-0.9,0.4-1.8,0.6-2.6,1.1
	c-0.5,0.3-0.5,0.7-1.1,0.7c-0.6,0-0.6-0.3-0.4-0.7c-0.5,0-1.1,0.5-1.4,0.8c-0.6,0.5-1.2,0.9-1.8,1.4c-0.5,0.5-1,1-1.4,1.5
	c-0.2,0.2-1.3,1.3-1.1,1.6c1-0.4,1.8-1.4,2.7-2.1c0.2-0.2,1-0.9,1.3-0.7c0.1,0.4-0.6,1-0.8,1.2c-2.1,1.7-3.6,4.1-4.8,6.5
	c-0.6,1.2-1.1,2.4-1.4,3.7c-0.2,1.1-0.3,2.3-0.4,3.4c-0.2,1.3-0.1,2.8-0.1,4.1c0,0.7,0,1.4,0,2.1c0,0.6,0.1,1.2-0.1,1.8
	c-0.5-0.8-0.5-2.4-0.5-3.4c-0.1-1.6-0.1-3.2-0.1-4.7c0-0.3,0-0.7-0.2-1c-0.2-0.2-0.5-0.1-0.6-0.3c-0.4-0.7,0-1.6,0.1-2.3
	c0.2-1.4,1-2.9,1.6-4.2c1.4-3.2,3.4-6,6-8.4c1.2-1.1,2.6-2,3.9-3c0.4-0.3,1.5-1.1,1.1-1.7c-0.2-0.2-0.5,0-0.5-0.3
	c-0.1-0.3,0.2-0.7,0.3-1c-0.6-0.1-1.3,0.4-1.8,0.7c-0.6,0.3-1.2,0.6-1.7,0.9c-0.9,0.5-1.9,0.8-2.9,1.2c-1.1,0.5-2,1.3-2.8,2.2
	c-0.4,0.4-0.8,0.8-1.2,1.1c-0.3,0.2-1,0.9-1.4,0.8c0-1,1.4-2,2.1-2.7c0.2-0.2,0.5-0.5,0.7-0.7c0-0.3,0.6-0.3,0.8-0.4
	c0.6-0.3,1-0.8,1.4-1.3c1.9-2.2,5-3.2,7.4-4.6c-0.5,0-1,0.1-1.5,0.3c-0.3,0.3-0.4,0.5-0.8,0.6c-0.4,0.1-0.7,0.1-1-0.1
	c0-0.6,0.6-0.5,1-0.8c0.4-0.3,0.2-0.6,0.4-0.8c0.5,0.1,0.7,0.7,1,0.1c0.3-0.5,0.4-0.2,0.8-0.4c0.4-0.2,0.7-0.6,1-0.9
	c-0.6-0.3-2.2,0.5-2.8,0.8c-0.9,0.4-1.9,0.9-2.7,1.4c-1.8,1.1-3.6,2.6-5.5,3.5c0-0.5,0.7-1.1,1-1.5c0.4-0.5,0.8-0.9,1.3-1.3
	c1-0.9,2.3-1.6,3.5-2.2c1.2-0.6,2.6-1.3,3.8-1.9C18.9,8.8,20.9,8.1,20.9,8.1z M30.2,8.8c0,0.8,2.1,2,2.3,1
	C32.5,9.1,30.6,8.2,30.2,8.8C30.2,8.9,30.2,8.7,30.2,8.8z M20,12c0.7,0,1.4-0.4,2-0.8C21.6,11,19.8,11.3,20,12
	C20.1,12,19.9,11.8,20,12z M39.2,46.3c0.2,0.5,1,0.6,0.9,0.1C39.8,46.2,39.4,46.2,39.2,46.3C39.4,46.6,39.2,46.3,39.2,46.3z
	 M21.2,19.1c-0.1,0-0.2,0-0.3,0.1c-0.3,0.1-0.5,0.3-0.7,0.5c-0.4,0.3-0.7,0.7-1,1.1c0,0,0,0.1,0,0.1c0.1,0,0.2,0,0.2,0
	c0.1-0.1,0.3-0.2,0.4-0.3c0.2-0.2,0.5-0.4,0.7-0.6c0.3-0.2,0.6-0.4,1-0.4c0.2,0,0.2-0.1,0.3-0.2c-0.1-0.2-0.2-0.2-0.4-0.3
	C21.3,19.1,21.2,19.2,21.2,19.1z M14.4,13.4c-0.2,0.1-0.3,0.1-0.4,0.2c-0.2,0.1-0.4,0.3-0.6,0.5c-0.1,0.1-0.1,0.2-0.1,0.3
	c0.4,0,0.7-0.2,0.9-0.4c0.2-0.1,0.4-0.3,0.5-0.6C14.6,13.4,14.5,13.3,14.4,13.4z M23.7,5.7c-0.1-0.8-2.9,0.8-0.5,0.2
	C23.3,5.8,23.7,5.8,23.7,5.7z M24.3,57.8c-0.1-0.4-0.3-0.7-0.4-0.7c-0.1,0-0.3-0.2-0.4-0.5c-0.3-0.7,0.2-0.6,1.1,0.2
	c0.4,0.4,1,0.7,1.3,0.7c0.3,0,0.6,0.3,0.6,0.7l0,0c0.1,0.7,0,0.7-1.8,0.7c-1.4,0-2.2-0.2-2.9-0.7c-0.7-0.4-0.8-0.7-0.4-0.7
	c0.3,0,0.6,0.1,0.8,0.3c0.1,0.2,0.7,0.3,1.3,0.3 M10.2,38.3c-0.1-1.6,0.5-3.6,0.9-4.4c0.3-0.7,0.4-2.5,3.4-5.8
	c0.2-0.2,0.4-0.5,0.6-0.5c0.2,0,0.5-0.2,0.7-0.4c0.2-0.3,0.1-0.3-0.2-0.1c-0.3,0.1,0.2-0.4,1-1.2c1.5-1.5,4.5-3.3,5.7-3.5
	c1.2-0.3,4.5-0.4,4.5-0.4c1.3,1.1,1.5,1.5,1.1,2c-0.3,0.5-0.8,0.6-3.1,0.6c-2.3,0-3.1,0.2-4.6,0.9c-1.5,0.7-2,1.1-2.4,2.1
	c-0.3,0.7-0.6,1.3-0.8,1.4c-0.7,0.5-3,4.5-3.7,6.6c-0.6,1.9-0.8,3.1-0.8,5.9c0,2.5-0.1,3.5-0.4,3.4c-1-0.4,1.1,5.4,3,8.3
	c0.8,1.2,1.4,2.2,1.4,2.3c0,0.1-0.6-0.3-1.4-0.7c-1.4-0.9-4.7-4-4.4-4.3c0.1-0.1,0.4,0.1,0.7,0.4c0.9,0.9,1.2,0.4,0.6-1.2
	c-1.4-3.6-2-6.3-1.8-7.9C10.3,40.8,10.3,38.7,10.2,38.3z M25.7,21.4 M17.3,44c0,2.3,1.4,6.3,3,8.7c0.7,1,1.3,2,1.3,2.1l0,0
	c0,0.5-2.1-1.8-3.2-3.5c-1.7-2.6-2.4-5.1-2.4-8c0-2.9,0.3-4.9,0.8-4.9c0.2,0,0.2-0.1,0.1-0.2c-0.1-0.1,0-0.4,0.2-0.7
	c0.2-0.2,0.3-0.5,0.2-0.7c-0.1-0.1-0.4,0.1-0.7,0.4c-0.7,0.9-0.6,0.5,0.2-1.7c0.6-1.5,0.8-1.8,1.3-1.7c0.8,0.2,1.4-1.8,0.9-2.8
	c-0.2-0.5-0.2-0.7,0.2-0.8c0.3-0.1,0.4-0.3,0.3-0.5c-0.1-0.2,0.1-0.2,0.5,0c0.4,0.2,1.2,0.4,1.9,0.4c3,0,3.3,1.5,0.6,2.9
	c-1.6,0.8-2.1,1.2-3.1,3.1c-1,1.8-1.2,2.3-1.1,3.4c0.1,0.9,0.1,1.1-0.1,0.8c-0.3-0.4-0.3-0.4-0.3,0.1c0,0.3-0.1,0.8-0.2,1.2L17.3,44
	z M19.3,30.9c0,0.2,0.1,0.3,0.1,0.3c0.1,0,0.2-0.1,0.3-0.3c0.1-0.2,0-0.3-0.1-0.3C19.4,30.6,19.3,30.7,19.3,30.9L19.3,30.9z
	 M27.3,53.7c0.3,1.1-2.8-2.5-3.4-3.9c-0.3-0.7-0.7-2.1-0.8-3c-0.1-0.9-0.3-1.7-0.5-1.7c-0.4,0-1.6-3.3-1.3-3.5
	c0.2-0.1,0.2-0.3,0.1-0.5c-0.2-0.3,2.6-2,3.3-2c0.2,0,0.6,0.2,0.8,0.5c0.3,0.4,0.3,0.8-0.3,1.9C24,43.9,24,46.3,25,49.6
	c0.2,0.7,0.7,1.6,1.3,2.5C26.7,52.6,27.1,53.4,27.3,53.7L27.3,53.7z M24.6,40.2c-0.1,0.3-0.1,0.6,0,0.7c0.1,0.1,0.3-0.1,0.4-0.4
	c0.1-0.3,0.1-0.6,0-0.7C24.9,39.7,24.8,39.9,24.6,40.2L24.6,40.2z M34.2,51.4c0.7,1.1,0.7,1.1-1.6-0.7C32.1,50.3,31.4,50,31,50
	c-0.4,0-0.7-0.3-0.8-0.7c-0.1-0.4-0.4-0.7-0.7-0.7c-0.3,0-0.4-0.2-0.3-0.6c0.1-0.3,0.4-1.1,0.5-1.7c0.2-0.6,0.5-1.2,0.8-1.3
	c0.8-0.3,1.7,1.1,1.7,2.5c0,0.7,0.3,1.6,0.6,2C33.3,50.1,33.9,50.9,34.2,51.4L34.2,51.4z M31,46.2c0.1,0.3,0.3,0.5,0.5,0.5
	c0.2,0,0.2-0.2,0.1-0.5c-0.1-0.3-0.3-0.5-0.5-0.5C30.9,45.7,30.9,45.9,31,46.2L31,46.2z M3.5,35.2l-0.3-1.3C3,33.2,2.9,32,3.1,31.2
	c0.3-1.8,2.2-5.8,3.2-6.5C6.7,24.4,7,24.1,6.9,24c0-0.1,0-0.2,0.1-0.2c0.1,0,0.2,0.1,0.2,0.2v0.5c0,0.2-0.5,0.9-1.1,1.6
	c-1.2,1.3-2.5,5.3-2.5,7.8L3.5,35.2z"/>
</svg>
